<svg xmlns="http://www.w3.org/2000/svg" width="67" height="56" fill="none"><path fill="#2C6269" fill-rule="evenodd" d="M26.4634 52.0327C23.6407 54.6776 19.9106 56 15.2732 56c-4.7382 0-8.46832-1.475-11.19027-4.4251C1.36098 48.6249 0 44.4541 0 39.0627c0-3.6622.85691-7.8329 2.57073-12.5123 1.71382-4.6794 4.00732-9.3588 6.88049-14.0381C12.3244 7.83288 15.626 3.66213 19.3561 0H31c-1.7138 4.06903-3.0244 7.78202-3.9317 11.139-.9073 3.3569-1.361 6.4087-1.361 9.1553 0 3.1535.4033 5.8492 1.2098 8.0872.8065 2.2379 1.6382 4.425 2.4951 6.5613.8569 2.1362 1.2854 4.6794 1.2854 7.6294 0 3.6621-1.4114 6.8156-4.2342 9.4605Zm36 0C59.6407 54.6776 55.9106 56 51.2732 56c-4.7382 0-8.4683-1.475-11.1903-4.4251C37.361 48.6249 36 44.4541 36 39.0627c0-3.6622.8569-7.8329 2.5707-12.5123 1.7139-4.6794 4.0073-9.3588 6.8805-14.0381C48.3244 7.83288 51.626 3.66213 55.3561 0H67c-1.7138 4.06903-3.0244 7.78202-3.9317 11.139-.9073 3.3569-1.361 6.4087-1.361 9.1553 0 3.1535.4033 5.8492 1.2098 8.0872.8065 2.2379 1.6382 4.425 2.4951 6.5613.8569 2.1362 1.2854 4.6794 1.2854 7.6294 0 3.6621-1.4114 6.8156-4.2342 9.4605Z" clip-rule="evenodd"/></svg>